<?xml version="1.0" encoding="UTF-8" standalone="no"?>
<svg
   xmlns:dc="http://purl.org/dc/elements/1.1/"
   xmlns:cc="http://creativecommons.org/ns#"
   xmlns:rdf="http://www.w3.org/1999/02/22-rdf-syntax-ns#"
   xmlns:svg="http://www.w3.org/2000/svg"
   xmlns="http://www.w3.org/2000/svg"
   viewBox="0 0 420 320"
   height="320"
   width="420"
   xml:space="preserve"
   id="svg2"
   version="1.1"><metadata
     id="metadata8"><rdf:RDF><cc:Work
         rdf:about=""><dc:format>image/svg+xml</dc:format><dc:type
           rdf:resource="http://purl.org/dc/dcmitype/StillImage" /></cc:Work></rdf:RDF></metadata><defs
     id="defs6"><clipPath
       id="clipPath18"
       clipPathUnits="userSpaceOnUse"><path
         id="path16"
         d="m 283.936,228.82 -26.838,-60.258 c -2,-4.47 -5.259,-4.464 -7.249,0.008 v 0 l -26.824,60.25 h -24.627 l 39.735,-89.241 c 0.007,-0.006 0.007,-0.008 0.007,-0.008 v 0 c 2,-4.479 7.642,-8.144 12.54,-8.144 v 0 h 14.512 l 43.373,97.393 z m -139.271,0 -43.37,-97.393 h 24.62 l 26.836,60.268 c 2.003,4.466 5.262,4.462 7.252,-0.012 v 0 l 26.829,-60.256 h 24.628 l -39.74,89.247 c 0,0.002 -0.007,0.01 -0.007,0.013 v 0 c -1.978,4.418 -7.513,8.053 -12.373,8.133 v 0 z m -74.447,0 v -49.631 c 0,-4.082 -2.021,-4.761 -4.486,-1.501 v 0 c 0,0 -34.273,45.261 -34.297,45.296 v 0 c -2.465,3.169 -7.646,5.767 -11.674,5.836 v 0 H 6.435 v -97.393 h 22.393 v 51.552 c 0,4.085 2.016,4.765 4.486,1.515 v 0 c 0,0 35.706,-47.161 35.718,-47.168 v 0 c 2.474,-3.247 7.82,-5.899 11.899,-5.899 v 0 H 92.576 V 228.82 Z M 6.443,86.95 c 0,-13.335 9.782,-23.402 22.775,-23.402 v 0 c 9.046,0 14.248,4.017 18.134,7.944 v 0 l 0.299,0.304 -3.91,3.825 -0.294,-0.276 C 39.483,71.548 35.563,69.023 29.346,69.023 v 0 c -9.605,0 -16.857,7.758 -16.857,18.05 v 0 c 0,10.224 7.252,17.943 16.857,17.943 v 0 c 5.176,0 9.287,-1.798 13.715,-6.011 v 0 l 0.307,-0.29 4.018,4.307 -0.306,0.298 c -3.956,3.712 -8.839,7.172 -17.67,7.172 v 0 c -13.089,0 -22.967,-10.13 -22.967,-23.542 m 269.96,23.088 -20.428,-45.143 -0.274,-0.589 h 6.072 l 5.292,11.78 h 23.727 l 5.218,-11.78 h 6.344 l -20.588,45.498 -0.113,0.234 z m 2.565,-7.298 9.476,-21.296 h -19.026 z m -101.024,7.298 -20.434,-45.143 -0.274,-0.589 h 6.083 l 5.298,11.78 h 23.719 l 5.221,-11.78 h 6.333 l -20.581,45.498 -0.114,0.234 z m 2.564,-7.298 9.487,-21.296 h -19.033 z m -38.245,7.298 V 75.096 l -27.347,34.789 -0.122,0.153 h -5.346 V 64.306 h 5.741 v 35.771 l 28.05,-35.609 0.117,-0.162 h 4.64 v 45.732 z m -68.008,0 -20.441,-45.143 -0.268,-0.589 h 6.087 l 5.284,11.78 h 23.726 l 5.216,-11.78 h 6.338 l -20.577,45.498 -0.123,0.234 z m 2.556,-7.298 9.485,-21.296 H 67.281 Z m 135.95,6.984 V 64.306 h 15.908 c 13.971,0 24.115,9.564 24.115,22.767 v 0 c 0,13.12 -10.144,22.651 -24.115,22.651 v 0 z m 5.87,-5.473 h 10.038 c 10.623,0 18.051,-7.124 18.051,-17.301 v 0 c 0,-10.104 -7.428,-17.153 -18.051,-17.153 v 0 H 218.631 Z M 32.072,16.469 28.828,11.18 156.384,28.381 283.936,11.18 l -3.054,5.262 -124.008,26.476 -0.49,0.061 z" /></clipPath><radialGradient
       id="radialGradient30"
       spreadMethod="pad"
       gradientTransform="matrix(202.38191,0,0,161.29961,159.76952,117.98383)"
       gradientUnits="userSpaceOnUse"
       r="1"
       cy="0"
       cx="0"
       fy="0"
       fx="0"><stop
         id="stop24"
         offset="0"
         style="stop-opacity:1;stop-color:#00a6dc" /><stop
         id="stop26"
         offset="0.90930584"
         style="stop-opacity:1;stop-color:#00529c" /><stop
         id="stop28"
         offset="1"
         style="stop-opacity:1;stop-color:#00529c" /></radialGradient></defs><g
     transform="matrix(1.3333333,0,0,-1.3333333,0,320)"
     id="g10"><g
       id="g12"><g
         clip-path="url(#clipPath18)"
         id="g14"><g
           id="g20"><g
             id="g22"><path
               id="path32"
               style="fill:url(#radialGradient30);stroke:none"
               d="m 283.936,228.82 -26.838,-60.258 c -2,-4.47 -5.259,-4.464 -7.249,0.008 v 0 l -26.824,60.25 h -24.627 l 39.735,-89.241 c 0.007,-0.006 0.007,-0.008 0.007,-0.008 v 0 c 2,-4.479 7.642,-8.144 12.54,-8.144 v 0 h 14.512 l 43.373,97.393 z m -139.271,0 -43.37,-97.393 h 24.62 l 26.836,60.268 c 2.003,4.466 5.262,4.462 7.252,-0.012 v 0 l 26.829,-60.256 h 24.628 l -39.74,89.247 c 0,0.002 -0.007,0.01 -0.007,0.013 v 0 c -1.978,4.418 -7.513,8.053 -12.373,8.133 v 0 z m -74.447,0 v -49.631 c 0,-4.082 -2.021,-4.761 -4.486,-1.501 v 0 c 0,0 -34.273,45.261 -34.297,45.296 v 0 c -2.465,3.169 -7.646,5.767 -11.674,5.836 v 0 H 6.435 v -97.393 h 22.393 v 51.552 c 0,4.085 2.016,4.765 4.486,1.515 v 0 c 0,0 35.706,-47.161 35.718,-47.168 v 0 c 2.474,-3.247 7.82,-5.899 11.899,-5.899 v 0 H 92.576 V 228.82 Z M 6.443,86.95 c 0,-13.335 9.782,-23.402 22.775,-23.402 v 0 c 9.046,0 14.248,4.017 18.134,7.944 v 0 l 0.299,0.304 -3.91,3.825 -0.294,-0.276 C 39.483,71.548 35.563,69.023 29.346,69.023 v 0 c -9.605,0 -16.857,7.758 -16.857,18.05 v 0 c 0,10.224 7.252,17.943 16.857,17.943 v 0 c 5.176,0 9.287,-1.798 13.715,-6.011 v 0 l 0.307,-0.29 4.018,4.307 -0.306,0.298 c -3.956,3.712 -8.839,7.172 -17.67,7.172 v 0 c -13.089,0 -22.967,-10.13 -22.967,-23.542 m 269.96,23.088 -20.428,-45.143 -0.274,-0.589 h 6.072 l 5.292,11.78 h 23.727 l 5.218,-11.78 h 6.344 l -20.588,45.498 -0.113,0.234 z m 2.565,-7.298 9.476,-21.296 h -19.026 z m -101.024,7.298 -20.434,-45.143 -0.274,-0.589 h 6.083 l 5.298,11.78 h 23.719 l 5.221,-11.78 h 6.333 l -20.581,45.498 -0.114,0.234 z m 2.564,-7.298 9.487,-21.296 h -19.033 z m -38.245,7.298 V 75.096 l -27.347,34.789 -0.122,0.153 h -5.346 V 64.306 h 5.741 v 35.771 l 28.05,-35.609 0.117,-0.162 h 4.64 v 45.732 z m -68.008,0 -20.441,-45.143 -0.268,-0.589 h 6.087 l 5.284,11.78 h 23.726 l 5.216,-11.78 h 6.338 l -20.577,45.498 -0.123,0.234 z m 2.556,-7.298 9.485,-21.296 H 67.281 Z m 135.95,6.984 V 64.306 h 15.908 c 13.971,0 24.115,9.564 24.115,22.767 v 0 c 0,13.12 -10.144,22.651 -24.115,22.651 v 0 z m 5.87,-5.473 h 10.038 c 10.623,0 18.051,-7.124 18.051,-17.301 v 0 c 0,-10.104 -7.428,-17.153 -18.051,-17.153 v 0 H 218.631 Z M 32.072,16.469 28.828,11.18 156.384,28.381 283.936,11.18 l -3.054,5.262 -124.008,26.476 -0.49,0.061 z" /></g></g></g></g></g></svg>